<?xml version="1.0" standalone="no"?>
<!DOCTYPE svg PUBLIC "-//W3C//DTD SVG 20010904//EN"
 "http://www.w3.org/TR/2001/REC-SVG-20010904/DTD/svg10.dtd">
<svg version="1.0" xmlns="http://www.w3.org/2000/svg"
 width="512.000000pt" height="512.000000pt" viewBox="0 0 512.000000 512.000000"
 preserveAspectRatio="xMidYMid meet">

<g transform="translate(0.000000,512.000000) scale(0.100000,-0.100000)"
fill="#000000" stroke="none">
<path d="M1734 5111 c-132 -32 -246 -152 -269 -283 l-7 -38 -443 0 c-384 0
-449 -2 -494 -17 -97 -31 -169 -116 -191 -226 -30 -148 36 -283 169 -346 l56
-26 1970 -3 c2047 -3 2045 -3 2125 38 180 93 199 406 32 521 -83 57 -99 58
-578 59 l-442 0 -7 38 c-19 107 -96 207 -201 258 l-59 29 -815 2 c-448 1 -829
-2 -846 -6z"/>
<path d="M654 3778 c4 -57 27 -449 51 -873 63 -1078 133 -2236 145 -2387 15
-195 58 -299 162 -393 60 -54 137 -92 226 -111 103 -21 2525 -21 2639 1 199
38 330 164 378 366 14 60 68 910 179 2799 20 327 37 619 40 648 l5 52 -1916 0
-1915 0 6 -102z"/>
</g>
</svg>
