<?xml version="1.0" standalone="no"?>
<!DOCTYPE svg PUBLIC "-//W3C//DTD SVG 20010904//EN"
 "http://www.w3.org/TR/2001/REC-SVG-20010904/DTD/svg10.dtd">
<svg version="1.0" xmlns="http://www.w3.org/2000/svg"
 width="80pt" height="90pt" viewBox="0 0 686.000000 771.000000"
 preserveAspectRatio="xMidYMid meet">

<g transform="translate(0.000000,771.000000) scale(0.100000,-0.100000)"
fill="#0077B6" stroke="none">
<path d="M4415 7699 c-288 -20 -542 -128 -714 -303 l-64 -65 -19 25 c-14 17
-29 24 -55 24 -31 0 -46 -10 -118 -81 -186 -181 -305 -404 -352 -662 -14 -79
-21 -96 -33 -91 -72 32 -110 2 -134 -106 -83 -365 -48 -659 108 -900 25 -38
69 -94 99 -125 l54 -56 6 -147 c8 -169 26 -273 52 -302 27 -30 82 -24 108 12
19 25 19 32 8 100 -7 40 -15 127 -18 193 l-6 121 90 11 c114 14 258 62 348
115 120 71 245 213 245 278 0 32 -41 66 -89 74 l-43 7 89 92 c212 220 379 500
443 745 30 114 16 134 -114 154 -42 6 -76 14 -76 18 0 11 77 204 114 284 49
106 146 281 217 391 72 112 78 134 47 168 -30 34 -48 36 -193 26z m-15 -155
c0 -3 -31 -60 -68 -127 -112 -201 -180 -350 -243 -536 -55 -161 -41 -186 120
-206 l53 -7 -6 -32 c-13 -67 -155 -331 -236 -440 -78 -104 -217 -252 -327
-347 -40 -34 -53 -52 -53 -73 0 -57 25 -74 135 -92 l40 -6 -38 -33 c-83 -72
-242 -135 -378 -151 l-59 -7 5 29 c2 16 10 65 16 109 53 389 263 861 543 1219
52 67 57 96 21 131 -59 60 -116 14 -276 -228 -216 -325 -362 -677 -425 -1021
-14 -77 -27 -142 -29 -144 -2 -2 -17 17 -35 43 -102 149 -148 377 -120 603 7
56 15 102 17 102 3 0 21 -13 40 -30 37 -33 50 -36 88 -18 30 14 32 22 39 163
8 192 56 362 146 519 43 76 143 206 158 206 4 0 16 -17 27 -38 17 -31 26 -37
58 -40 47 -4 57 4 98 76 97 172 318 315 559 361 30 6 64 13 75 15 32 6 55 6
55 0z"/>
<path d="M2615 4853 c-38 -8 -185 -52 -325 -98 -140 -45 -291 -91 -335 -101
-99 -23 -342 -26 -423 -5 -119 30 -132 7 -132 -252 0 -169 -2 -196 -17 -208
-36 -31 -53 -90 -53 -194 0 -96 2 -103 33 -155 25 -42 44 -61 86 -82 l53 -28
798 0 798 0 30 -53 c138 -244 481 -241 612 7 l25 46 795 0 795 0 51 24 c81 38
122 102 131 204 7 91 -11 174 -48 216 l-29 34 0 201 c0 201 0 202 -25 226 -29
30 -34 30 -138 9 -96 -20 -280 -14 -397 11 -41 9 -183 52 -315 95 -132 44
-267 86 -300 95 -83 23 -278 31 -357 15 -158 -31 -307 -132 -439 -297 l-58
-73 -51 65 c-123 154 -281 266 -421 300 -81 19 -252 18 -344 -2z m330 -150
c124 -38 262 -155 363 -306 48 -72 52 -84 52 -136 0 -32 -2 -60 -6 -63 -3 -3
-26 4 -52 17 -113 54 -126 55 -971 55 l-781 0 0 108 0 107 168 0 c210 0 283
15 627 130 224 75 302 96 400 109 48 6 146 -4 200 -21z m1285 1 c36 -8 171
-50 300 -94 327 -109 403 -125 613 -125 l167 0 0 -107 0 -108 -777 0 c-840 0
-853 -1 -969 -54 -29 -14 -56 -21 -58 -17 -3 4 -4 35 -2 68 2 56 7 69 51 135
63 94 185 215 255 255 57 31 132 59 185 66 45 7 162 -3 235 -19z m-1017 -612
c31 -13 90 -48 129 -78 39 -30 79 -54 89 -54 10 0 37 16 61 35 73 59 140 94
210 110 57 13 184 15 847 15 l780 0 28 -24 c26 -22 28 -30 28 -94 0 -61 -3
-74 -24 -96 l-24 -26 -827 0 c-809 0 -828 0 -852 -20 -15 -11 -30 -38 -37 -64
-22 -88 -98 -146 -190 -146 -93 0 -164 55 -192 148 -7 24 -24 52 -37 63 -24
18 -49 19 -848 19 l-823 0 -28 24 c-26 22 -28 30 -28 96 0 66 2 74 28 96 l29
25 811 -3 812 -3 58 -23z"/>
<path d="M3540 1110 l0 -862 278 4 c236 4 285 7 329 23 155 54 225 212 226
515 1 225 -34 328 -131 387 -47 27 -51 32 -32 38 33 10 89 64 110 104 53 105
52 357 -1 482 -12 27 -41 66 -64 88 -73 67 -109 74 -432 79 l-283 4 0 -862z
m456 575 c26 -26 26 -27 22 -174 -4 -180 -9 -191 -95 -191 l-53 0 0 195 0 195
50 0 c41 0 56 -5 76 -25z m-4 -646 c39 -21 48 -67 48 -246 0 -140 -3 -173 -16
-192 -21 -29 -72 -51 -119 -51 l-35 0 0 250 0 250 51 0 c28 0 59 -5 71 -11z"/>
<path d="M4490 1110 l0 -860 175 0 175 0 0 860 0 860 -175 0 -175 0 0 -860z"/>
<path d="M500 1276 c0 -637 -1 -685 -17 -704 -40 -47 -109 -32 -130 28 -8 23
-12 109 -12 243 l-1 207 -166 0 -166 0 4 -267 c3 -266 3 -268 30 -325 57 -121
164 -197 310 -219 183 -27 355 49 432 192 56 102 56 97 56 842 l0 687 -170 0
-170 0 0 -684z"/>
<path d="M2980 1805 l0 -155 -45 0 -45 0 0 -130 0 -130 44 0 45 0 3 -502 3
-503 25 -49 c32 -64 60 -84 138 -97 60 -11 210 -1 257 17 12 5 15 27 15 120
l0 114 -38 0 c-21 0 -43 5 -50 12 -9 9 -12 123 -12 450 l0 438 50 0 50 0 0
130 0 130 -50 0 -50 0 0 155 0 155 -170 0 -170 0 0 -155z"/>
<path d="M2283 1719 c-118 -20 -218 -75 -273 -151 -47 -64 -63 -135 -58 -247
8 -162 47 -219 268 -391 202 -157 236 -205 228 -321 -3 -44 -10 -66 -26 -81
-30 -31 -79 -28 -109 6 -21 25 -23 36 -23 137 l0 109 -175 0 -175 0 0 -77 c0
-287 109 -432 348 -464 217 -29 408 53 478 206 55 120 55 311 -1 432 -34 75
-156 194 -313 307 -67 48 -130 100 -140 114 -11 16 -17 46 -17 80 0 62 18 82
71 82 38 0 74 -38 74 -79 0 -14 3 -43 6 -63 l7 -38 173 0 174 0 0 43 c0 120
-46 243 -113 304 -92 82 -248 118 -404 92z"/>
<path d="M5320 1719 c-129 -21 -257 -121 -299 -233 -38 -103 -43 -166 -39
-557 4 -345 6 -379 24 -435 26 -77 74 -147 127 -185 83 -60 238 -89 373 -69
184 27 288 120 329 291 22 94 22 798 0 884 -60 227 -259 345 -515 304z m140
-269 c37 -20 40 -61 40 -477 0 -425 -2 -450 -45 -467 -51 -19 -98 0 -114 45
-15 43 -15 806 0 846 22 58 69 80 119 53z"/>
<path d="M6156 1715 c-72 -25 -124 -90 -154 -190 -20 -66 -29 -697 -12 -807
28 -180 126 -278 279 -278 99 0 173 39 207 107 l19 38 3 -83 c8 -224 -91 -301
-303 -235 -27 9 -66 24 -86 34 l-36 18 -56 -97 c-64 -110 -64 -109 22 -155 81
-45 161 -60 316 -61 314 -1 449 94 485 342 5 38 10 354 10 720 l0 652 -175 0
-175 0 -1 -82 -1 -83 -15 35 c-24 57 -63 101 -107 121 -50 22 -162 25 -220 4z
m308 -275 c13 -17 28 -49 31 -73 4 -23 5 -169 3 -324 -3 -268 -4 -283 -24
-310 -23 -31 -69 -42 -103 -23 -37 19 -42 75 -39 404 3 292 4 315 22 335 29
32 78 28 110 -9z"/>
<path d="M970 1118 c0 -471 3 -607 14 -659 32 -148 89 -206 223 -224 117 -16
196 23 248 124 l24 46 1 -77 0 -78 170 0 170 0 0 730 0 730 -170 0 -169 0 -3
-579 -3 -579 -24 -26 c-29 -31 -69 -34 -102 -7 -33 26 -35 71 -35 669 l1 522
-172 0 -173 0 0 -592z"/>
</g>
</svg>
